<?xml version="1.0" encoding="utf-8"?>
<!-- Generator: Adobe Illustrator 21.1.0, SVG Export Plug-In . SVG Version: 6.00 Build 0)  -->
<svg version="1.1" id="Layer_1" xmlns="http://www.w3.org/2000/svg" xmlns:xlink="http://www.w3.org/1999/xlink" x="0px" y="0px"
	 viewBox="0 0 2180 2180.1" style="enable-background:new 0 0 2180 2180.1;" xml:space="preserve">
<style type="text/css">
	.st0{fill:none;}
	.st1{fill:#2062AF;}
	.st2{fill:#3C9CD7;}
	.st3{fill:#FFFFFF;}
	.st4{fill:url(#SVGID_1_);}
	.st5{fill:url(#SVGID_2_);}
	.st6{fill:url(#SVGID_3_);}
	.st7{opacity:5.000000e-02;enable-background:new    ;}
	.st8{fill:url(#SVGID_4_);}
</style>
<path class="st0" d="M-160-159.9h2500v2500H-160V-159.9z"/>
<path class="st1" d="M1722.3,2009.9L1090,2180.1l-632.3-170.2L311.8,429.3h1556.3L1722.3,2009.9z"/>
<path class="st2" d="M1090,557.3v1487.1l1.4,0.4l511.7-137.8l118.1-1349.7L1090,557.3L1090,557.3z"/>
<path d="M731.2,197v-94.1h137.3V0H628.2v291h240.2V197H731.2z M1115.3,102.9h96V0H971.1v102.9c32.1,32.1,48.9,47.5,95.4,94
	c-27.2,0-95.4,0.1-95.4,0.1V291h240.2V197L1115.3,102.9L1115.3,102.9z M1455.8,102.9h96V0h-240.2v102.9c32.1,32.1,48.9,47.5,95.4,94
	c-27.2,0-95.4,0.1-95.4,0.1V291h240.2V197L1455.8,102.9L1455.8,102.9z"/>
<path class="st3" d="M1089.4,952.5L636.9,1141l15,186.6l437.5-187.1l465.4-199l19.3-190.9L1089.4,952.5L1089.4,952.5z"/>
<linearGradient id="SVGID_1_" gradientUnits="userSpaceOnUse" x1="-244.8727" y1="-36.2085" x2="-244.8727" y2="-117.0095" gradientTransform="matrix(4.6418 0 0 4.6418 1999.8104 1495.6466)">
	<stop  offset="0.387" style="stop-color:#D1D3D4;stop-opacity:0"/>
	<stop  offset="1" style="stop-color:#D1D3D4"/>
</linearGradient>
<path class="st4" d="M636.9,1141l15,186.6l437.5-187.1v-188L636.9,1141z"/>
<linearGradient id="SVGID_2_" gradientUnits="userSpaceOnUse" x1="-143.9157" y1="-76.5095" x2="-143.9157" y2="-160.4985" gradientTransform="matrix(4.6418 0 0 4.6418 1999.8104 1495.6466)">
	<stop  offset="0.387" style="stop-color:#D1D3D4;stop-opacity:0"/>
	<stop  offset="1" style="stop-color:#D1D3D4"/>
</linearGradient>
<path class="st5" d="M1574.1,750.6l-484.7,201.9v188l465.4-199L1574.1,750.6z"/>
<linearGradient id="SVGID_3_" gradientUnits="userSpaceOnUse" x1="-293.4677" y1="-0.1705" x2="-99.4027" y2="-0.1705" gradientTransform="matrix(4.6418 0 0 4.6418 1999.8104 1495.6466)">
	<stop  offset="0" style="stop-color:#E8E7E5"/>
	<stop  offset="1" style="stop-color:#FFFFFF"/>
</linearGradient>
<path class="st6" d="M637.6,1141l15,186.6l671.3,2.1l-15,248.8l-220.9,62.2l-212.4-53.6l-12.9-154.4H665.5l25.7,298.1l398.9,118
	l396.8-115.8l51.5-591.9H637.6z"/>
<path class="st7" d="M1089.4,1141H636.9l15,186.6l437.5,1.4L1089.4,1141L1089.4,1141z M1089.4,1640.1l-2.1,0.6L875,1587.1
	l-12.9-154.4H664.8l25.7,298.1l398.9,118V1640.1z"/>
<linearGradient id="SVGID_4_" gradientUnits="userSpaceOnUse" x1="-302.3967" y1="-139.9375" x2="-91.7047" y2="-139.9375" gradientTransform="matrix(4.6418 0 0 4.6418 1999.8104 1495.6466)">
	<stop  offset="0" style="stop-color:#E8E7E5"/>
	<stop  offset="1" style="stop-color:#FFFFFF"/>
</linearGradient>
<path class="st8" d="M596.1,750.6h978l-19.3,190.9H619.7L596.1,750.6L596.1,750.6z"/>
<path class="st7" d="M1089.4,750.6H596.1l23.6,190.9h469.7L1089.4,750.6L1089.4,750.6z"/>
</svg>
