<svg id="Layer_1" data-name="Layer 1" xmlns="http://www.w3.org/2000/svg" viewBox="0 0 113.39 113.39"><defs><style>.cls-1{fill:none;}.cls-2{fill:#e6a329;}.cls-3{fill:#f1bf22;}.cls-4{fill:#fff;}.cls-5{fill:#ebebeb;}.cls-6{fill:#231f20;}</style></defs><title>js_logo</title><rect class="cls-1" width="113.39" height="113.39"/><polygon class="cls-2" points="96.97 22.22 56.69 22.22 56.69 22.22 16.42 22.22 23.96 104.11 56.69 113.39 56.69 113.39 56.69 113.39 56.69 113.39 56.69 113.39 89.41 104.11 96.97 22.22"/><polygon class="cls-3" points="56.69 28.89 56.69 106.45 56.69 106.45 83.19 98.94 89.65 28.89 56.69 28.89"/><polygon class="cls-4" points="77.78 38.94 37.02 38.94 34.18 69.6 34.24 69.41 68.87 69.41 67.74 82.38 56.69 85.56 45.48 82.33 44.81 74.48 34.63 74.48 36.08 90.17 56.69 96.02 77.31 90.17 80.14 59.38 43.4 59.38 43.87 49.12 69.37 49.12 69.75 55 80.02 55 77.78 38.94"/><path class="cls-5" d="M70.87,53.11H51.19L48.35,83.77l.06-.19H70.87v-10H59l.47-10.26H70.87ZM59,88.65H48.8l1.45,15.68,20.61,5.84V99.74L59.65,96.5Z" transform="translate(-14.17 -14.17)"/><polygon class="cls-6" points="48.85 10.14 41.69 10.14 41.69 15.29 48.85 15.29 52.69 15.29 53.99 15.29 53.99 0 48.85 0 48.85 10.14"/><path class="cls-6" d="M85.87,14.25H73.37V19.6c1.67,1.67,2.54,2.47,5,4.89h-5v4.88H85.87V24.5l-5-4.89h5Z" transform="translate(-14.17 -14.17)"/></svg>